<?xml version="1.0" encoding="UTF-8"?>
<svg xmlns="http://www.w3.org/2000/svg" xmlns:xlink="http://www.w3.org/1999/xlink" width="100px" height="100px" viewBox="0 0 100 100" version="1.1">
<defs>
<filter id="alpha" filterUnits="objectBoundingBox" x="0%" y="0%" width="100%" height="100%">
  <feColorMatrix type="matrix" in="SourceGraphic" values="0 0 0 0 1 0 0 0 0 1 0 0 0 0 1 0 0 0 1 0"/>
</filter>
<mask id="mask0">
  <g filter="url(#alpha)">
<rect x="0" y="0" width="100" height="100" style="fill:rgb(0%,0%,0%);fill-opacity:0.4;stroke:none;"/>
  </g>
</mask>
<clipPath id="clip1">
  <rect x="0" y="0" width="100" height="100"/>
</clipPath>
<g id="surface5" clip-path="url(#clip1)">
<path style=" stroke:none;fill-rule:nonzero;fill:rgb(16.078431%,17.647059%,19.607843%);fill-opacity:1;" d="M 50 91.707031 C 73.011719 91.707031 91.667969 73.054688 91.667969 50.042969 C 91.667969 27.03125 73.011719 8.375 50 8.375 C 26.988281 8.375 8.332031 27.03125 8.332031 50.042969 C 8.332031 73.054688 26.988281 91.707031 50 91.707031 Z M 50 91.707031 "/>
</g>
</defs>
<g id="surface1">
<use xlink:href="#surface5" mask="url(#mask0)"/>
<path style=" stroke:none;fill-rule:nonzero;fill:rgb(16.078431%,17.647059%,19.607843%);fill-opacity:1;" d="M 50 28.917969 C 41.375 28.917969 34.375 35.917969 34.375 44.542969 C 34.375 53 41 59.875 49.792969 60.125 L 50.542969 60.125 C 58.957031 59.832031 65.582031 53 65.625 44.542969 C 65.625 35.917969 58.625 28.917969 50 28.917969 Z M 50 28.917969 "/>
<path style=" stroke:none;fill-rule:nonzero;fill:rgb(16.078431%,17.647059%,19.607843%);fill-opacity:1;" d="M 78.253906 80.667969 C 70.835938 87.5 60.917969 91.707031 50.003906 91.707031 C 39.085938 91.707031 29.167969 87.5 21.753906 80.667969 C 22.753906 76.875 25.460938 73.417969 29.417969 70.75 C 40.792969 63.167969 59.292969 63.167969 70.585938 70.75 C 74.585938 73.417969 77.253906 76.875 78.253906 80.667969 Z M 78.253906 80.667969 "/>
</g>
</svg>
