<?xml version="1.0" encoding="UTF-8"?>
<svg xmlns="http://www.w3.org/2000/svg" xmlns:xlink="http://www.w3.org/1999/xlink" width="444px" height="250px" viewBox="0 0 444 250" version="1.1">
<g id="surface2">
<path style=" stroke:none;fill-rule:nonzero;fill:rgb(0%,0%,0%);fill-opacity:1;" d="M 87.710938 139.457031 L 87.710938 132.730469 C 87.710938 118.714844 83.082031 115.511719 67.316406 115.511719 L 54.640625 115.511719 C 38.875 115.511719 34.246094 118.714844 34.246094 132.730469 L 34.246094 139.457031 C 34.246094 153.917969 38.765625 157.117188 54.640625 157.117188 L 67.316406 157.117188 C 83.191406 157.117188 87.710938 153.917969 87.710938 139.457031 Z M 52.4375 165.496094 C 32.589844 165.496094 25.316406 158.21875 25.316406 140.453125 L 25.316406 131.507812 C 25.316406 114.296875 33.03125 107.234375 52.4375 107.234375 L 69.851562 107.234375 C 78.121094 107.234375 83.632812 109.550781 87.601562 115.179688 L 87.601562 84.503906 L 96.3125 84.503906 L 96.3125 164.722656 L 88.480469 164.722656 L 88.480469 155.457031 C 84.957031 163.625 78.5625 165.496094 67.539062 165.496094 L 52.4375 165.496094 "/>
<path style=" stroke:none;fill-rule:nonzero;fill:rgb(0%,0%,0%);fill-opacity:1;" d="M 173.695312 130.195312 C 173.695312 129.746094 173.695312 129.304688 173.695312 128.863281 C 173.695312 117.609375 168.183594 115.511719 154.40625 115.511719 L 140.40625 115.511719 C 126.957031 115.511719 121.113281 118.824219 121.113281 130.195312 Z M 183.179688 133.941406 C 183.179688 135.375 183.179688 136.804688 183.066406 138.355469 L 121.113281 138.355469 L 121.113281 141.441406 C 121.113281 153.136719 125.855469 157.554688 140.625 157.554688 L 155.398438 157.554688 C 167.855469 157.554688 173.808594 154.578125 173.808594 147.953125 C 173.808594 147.734375 173.808594 147.625 173.808594 147.402344 L 183.179688 147.402344 C 183.179688 147.847656 183.179688 148.394531 183.179688 148.835938 C 183.179688 159.652344 174.46875 165.496094 157.492188 165.496094 L 140.515625 165.496094 C 120.007812 165.496094 112.074219 158.433594 112.074219 141 L 112.074219 131.957031 C 112.074219 114.296875 119.898438 107.234375 140.515625 107.234375 L 154.625 107.234375 C 175.570312 107.234375 183.179688 113.746094 183.179688 133.941406 "/>
<path style=" stroke:none;fill-rule:nonzero;fill:rgb(0%,0%,0%);fill-opacity:1;" d="M 198.171875 164.722656 L 198.171875 108.007812 L 206.878906 108.007812 L 206.878906 115.179688 C 210.515625 108.671875 218.5625 107.234375 232.34375 107.234375 C 247.117188 107.234375 255.273438 109.109375 258.910156 117.609375 C 262.660156 110.324219 270.816406 107.125 283.71875 107.125 C 305.761719 107.125 314.691406 112.421875 314.691406 127.761719 L 314.691406 164.722656 L 306.425781 164.722656 L 306.425781 130.195312 C 306.425781 124.894531 306.09375 121.359375 302.785156 119.042969 C 299.921875 117.058594 293.636719 115.734375 284.15625 115.734375 C 268.722656 115.734375 261.667969 119.375 261.667969 129.527344 L 261.667969 164.722656 L 253.070312 164.722656 L 253.070312 129.410156 C 253.070312 118.492188 249.210938 115.511719 231.570312 115.511719 C 214.378906 115.511719 206.988281 119.488281 206.988281 130.296875 L 206.988281 164.722656 L 198.171875 164.722656 "/>
<path style=" stroke:none;fill-rule:nonzero;fill:rgb(0%,0%,0%);fill-opacity:1;" d="M 372.742188 157.117188 C 388.617188 157.117188 393.246094 153.917969 393.246094 139.457031 L 393.246094 132.730469 C 393.246094 118.714844 388.503906 115.511719 372.742188 115.511719 L 357.964844 115.511719 C 342.207031 115.511719 337.578125 118.714844 337.578125 132.730469 L 337.578125 139.457031 C 337.578125 153.917969 342.09375 157.117188 357.964844 157.117188 Z M 328.535156 140.453125 L 328.535156 131.507812 C 328.535156 114.296875 336.25 107.234375 355.652344 107.234375 L 375.167969 107.234375 C 394.566406 107.234375 402.285156 114.296875 402.285156 131.507812 L 402.285156 140.453125 C 402.285156 158.21875 395.007812 165.496094 375.167969 165.496094 L 355.652344 165.496094 C 335.808594 165.496094 328.535156 158.21875 328.535156 140.453125 "/>
<path style=" stroke:none;fill-rule:nonzero;fill:rgb(13.72549%,12.156863%,12.54902%);fill-opacity:1;" d="M 413.867188 155.851562 L 413.867188 156.210938 C 413.867188 157.046875 413.683594 157.273438 412.394531 157.273438 C 412.394531 157.273438 409.605469 157.273438 409.300781 157.273438 L 409.300781 154.789062 C 409.605469 154.789062 412.394531 154.789062 412.394531 154.789062 C 413.683594 154.789062 413.867188 155.015625 413.867188 155.851562 Z M 415.164062 156.449219 L 415.164062 155.570312 C 415.164062 153.925781 414.21875 153.648438 412.101562 153.648438 L 408.050781 153.648438 L 408.050781 161.351562 L 409.300781 161.351562 C 409.300781 161.351562 409.300781 158.769531 409.300781 158.46875 C 409.605469 158.46875 412.222656 158.46875 412.222656 158.46875 C 413.503906 158.46875 413.832031 158.570312 413.832031 159.539062 L 413.832031 161.351562 L 415.085938 161.351562 L 415.085938 159.359375 C 415.085938 158.578125 414.691406 158.136719 414.078125 157.925781 C 414.800781 157.675781 415.164062 157.285156 415.164062 156.449219 "/>
<path style=" stroke:none;fill-rule:nonzero;fill:rgb(13.72549%,12.156863%,12.54902%);fill-opacity:1;" d="M 405.609375 157.695312 C 405.609375 154.472656 408.226562 151.855469 411.445312 151.855469 C 414.664062 151.855469 417.28125 154.472656 417.28125 157.695312 C 417.28125 160.917969 414.664062 163.539062 411.445312 163.539062 C 408.226562 163.539062 405.609375 160.917969 405.609375 157.695312 Z M 404.207031 157.695312 C 404.207031 161.695312 407.449219 164.945312 411.445312 164.945312 C 415.433594 164.945312 418.683594 161.695312 418.683594 157.695312 C 418.683594 153.703125 415.433594 150.449219 411.445312 150.449219 C 407.449219 150.449219 404.207031 153.703125 404.207031 157.695312 "/>
</g>
</svg>
