<?xml version="1.0" encoding="UTF-8"?>
<svg xmlns="http://www.w3.org/2000/svg" xmlns:xlink="http://www.w3.org/1999/xlink" width="356px" height="200px" viewBox="0 0 355 200" version="1.1">
<g id="surface2">
<path style=" stroke:none;fill-rule:nonzero;fill:rgb(0%,0%,0%);fill-opacity:1;" d="M 70.128906 111.566406 L 70.128906 106.183594 C 70.128906 94.972656 66.425781 92.410156 53.824219 92.410156 L 43.6875 92.410156 C 31.082031 92.410156 27.382812 94.972656 27.382812 106.183594 L 27.382812 111.566406 C 27.382812 123.132812 30.996094 125.691406 43.6875 125.691406 L 53.824219 125.691406 C 66.515625 125.691406 70.128906 123.132812 70.128906 111.566406 Z M 41.925781 132.394531 C 26.058594 132.394531 20.242188 126.574219 20.242188 112.363281 L 20.242188 105.207031 C 20.242188 91.4375 26.410156 85.789062 41.925781 85.789062 L 55.851562 85.789062 C 62.460938 85.789062 66.867188 87.640625 70.042969 92.144531 L 70.042969 67.605469 L 77.007812 67.605469 L 77.007812 131.78125 L 70.746094 131.78125 L 70.746094 124.367188 C 67.925781 130.898438 62.816406 132.394531 54 132.394531 L 41.925781 132.394531 "/>
<path style=" stroke:none;fill-rule:nonzero;fill:rgb(0%,0%,0%);fill-opacity:1;" d="M 138.875 104.15625 C 138.875 103.796875 138.875 103.441406 138.875 103.09375 C 138.875 94.085938 134.472656 92.410156 123.453125 92.410156 L 112.261719 92.410156 C 101.507812 92.410156 96.835938 95.058594 96.835938 104.15625 Z M 146.460938 107.152344 C 146.460938 108.300781 146.460938 109.445312 146.371094 110.683594 L 96.835938 110.683594 L 96.835938 113.152344 C 96.835938 122.511719 100.628906 126.042969 112.4375 126.042969 L 124.246094 126.042969 C 134.207031 126.042969 138.96875 123.660156 138.96875 118.363281 C 138.96875 118.1875 138.96875 118.097656 138.96875 117.921875 L 146.460938 117.921875 C 146.460938 118.28125 146.460938 118.714844 146.460938 119.066406 C 146.460938 127.722656 139.496094 132.394531 125.925781 132.394531 L 112.347656 132.394531 C 95.953125 132.394531 89.609375 126.746094 89.609375 112.800781 L 89.609375 105.566406 C 89.609375 91.4375 95.867188 85.789062 112.347656 85.789062 L 123.628906 85.789062 C 140.378906 85.789062 146.460938 90.996094 146.460938 107.152344 "/>
<path style=" stroke:none;fill-rule:nonzero;fill:rgb(0%,0%,0%);fill-opacity:1;" d="M 158.449219 131.78125 L 158.449219 86.40625 L 165.410156 86.40625 L 165.410156 92.144531 C 168.316406 86.9375 174.75 85.789062 185.769531 85.789062 C 197.582031 85.789062 204.105469 87.289062 207.011719 94.085938 C 210.007812 88.261719 216.53125 85.699219 226.847656 85.699219 C 244.472656 85.699219 251.609375 89.9375 251.609375 102.207031 L 251.609375 131.78125 L 245.003906 131.78125 L 245.003906 104.15625 C 245.003906 99.914062 244.734375 97.089844 242.09375 95.234375 C 239.800781 93.644531 234.777344 92.589844 227.199219 92.589844 C 214.855469 92.589844 209.214844 95.5 209.214844 103.621094 L 209.214844 131.78125 L 202.34375 131.78125 L 202.34375 103.527344 C 202.34375 94.792969 199.257812 92.410156 185.152344 92.410156 C 171.40625 92.410156 165.5 95.589844 165.5 104.238281 L 165.5 131.78125 L 158.449219 131.78125 "/>
<path style=" stroke:none;fill-rule:nonzero;fill:rgb(0%,0%,0%);fill-opacity:1;" d="M 298.027344 125.691406 C 310.71875 125.691406 314.417969 123.132812 314.417969 111.566406 L 314.417969 106.183594 C 314.417969 94.972656 310.628906 92.410156 298.027344 92.410156 L 286.210938 92.410156 C 273.609375 92.410156 269.910156 94.972656 269.910156 106.183594 L 269.910156 111.566406 C 269.910156 123.132812 273.519531 125.691406 286.210938 125.691406 Z M 262.679688 112.363281 L 262.679688 105.207031 C 262.679688 91.4375 268.847656 85.789062 284.363281 85.789062 L 299.964844 85.789062 C 315.476562 85.789062 321.644531 91.4375 321.644531 105.207031 L 321.644531 112.363281 C 321.644531 126.574219 315.828125 132.394531 299.964844 132.394531 L 284.363281 132.394531 C 268.496094 132.394531 262.679688 126.574219 262.679688 112.363281 "/>
<path style=" stroke:none;fill-rule:nonzero;fill:rgb(13.72549%,12.156863%,12.54902%);fill-opacity:1;" d="M 330.90625 124.683594 L 330.90625 124.96875 C 330.90625 125.636719 330.757812 125.816406 329.730469 125.816406 C 329.730469 125.816406 327.5 125.816406 327.257812 125.816406 L 327.257812 123.832031 C 327.5 123.832031 329.730469 123.832031 329.730469 123.832031 C 330.757812 123.832031 330.90625 124.015625 330.90625 124.683594 Z M 331.945312 125.160156 L 331.945312 124.457031 C 331.945312 123.140625 331.1875 122.917969 329.496094 122.917969 L 326.257812 122.917969 L 326.257812 129.082031 L 327.257812 129.082031 C 327.257812 129.082031 327.257812 127.015625 327.257812 126.773438 C 327.5 126.773438 329.589844 126.773438 329.589844 126.773438 C 330.617188 126.773438 330.878906 126.855469 330.878906 127.632812 L 330.878906 129.082031 L 331.882812 129.082031 L 331.882812 127.488281 C 331.882812 126.863281 331.566406 126.511719 331.074219 126.339844 C 331.652344 126.140625 331.945312 125.828125 331.945312 125.160156 "/>
<path style=" stroke:none;fill-rule:nonzero;fill:rgb(13.72549%,12.156863%,12.54902%);fill-opacity:1;" d="M 324.304688 126.15625 C 324.304688 123.578125 326.394531 121.484375 328.96875 121.484375 C 331.542969 121.484375 333.636719 123.578125 333.636719 126.15625 C 333.636719 128.734375 331.542969 130.832031 328.96875 130.832031 C 326.394531 130.832031 324.304688 128.734375 324.304688 126.15625 Z M 323.183594 126.15625 C 323.183594 129.355469 325.777344 131.957031 328.96875 131.957031 C 332.160156 131.957031 334.757812 129.355469 334.757812 126.15625 C 334.757812 122.960938 332.160156 120.359375 328.96875 120.359375 C 325.777344 120.359375 323.183594 122.960938 323.183594 126.15625 "/>
</g>
</svg>
